<svg id="Layer_1" data-name="Layer 1" xmlns="http://www.w3.org/2000/svg" viewBox="0 0 200 200"><defs><style>.cls-1{fill:none;}.cls-2{fill:#fff;fill-rule:evenodd;}.cls-3{fill:#4a4b4c;}</style></defs><title>Chess-Pieces</title><rect class="cls-1" y="0.51" width="200" height="200"/><path class="cls-2" d="M68,167.78h0V164c0-2.48,3.81-4,6.39-5.69,12.32-8.28,11.32-25.87,11.5-42.15H84.57a1.65,1.65,0,0,1-1.64-1.64V110c-5.82-.16-5.71-8.94.12-8.94h1.12c-8.6-15.41.32-27,12.09-37.55a6.17,6.17,0,1,1,7.47,0c11.77,10.5,20.7,22.14,12.09,37.55h1.12c5.83,0,5.94,8.78.12,8.94v4.46a1.65,1.65,0,0,1-1.64,1.64h-1.33c0.18,16.28-.82,33.87,11.5,42.15C128.18,160,132,161.48,132,164v3.82h0c6.76,0,9.12,8.55,4,12.3,4.34,1.59,3.32,8.2-1.44,8.2H65.42c-4.76,0-5.78-6.61-1.44-8.2-5.09-3.76-2.72-12.3,4-12.3h0Z"/><path class="cls-3" d="M68,169.48h0a5,5,0,0,0-3.21,1.07,5.06,5.06,0,0,0-1.61,2.4,5.42,5.42,0,0,0-.1,2.95,5,5,0,0,0,1.9,2.81l1,0.74h68l1-.74a5,5,0,0,0,1.9-2.81,5.43,5.43,0,0,0-.1-2.95,5.08,5.08,0,0,0-1.61-2.4,5,5,0,0,0-3.21-1.07H68Zm17.85-68.87h28.27l0.21-.37c4-7.17,3.94-13.44,1.51-19.12-2.51-5.87-7.53-11.23-13.25-16.34L101,63.39l1.69-1.24a4.26,4.26,0,0,0,1.65-2.4,4.6,4.6,0,0,0-.1-2.54,4.54,4.54,0,0,0-1.42-2.1,4.71,4.71,0,0,0-5.72,0h0a4.54,4.54,0,0,0-1.42,2.1,4.59,4.59,0,0,0-.1,2.54,4.25,4.25,0,0,0,1.65,2.4L99,63.39l-1.57,1.4c-5.72,5.11-10.74,10.47-13.25,16.34-2.43,5.68-2.49,12,1.51,19.12l0.21,0.37h0Zm27.07,2.16H83.05a2.54,2.54,0,0,0-2.48,1.52,3.22,3.22,0,0,0,0,2.43A2.53,2.53,0,0,0,83,108.31l1.33,0h31.41l1.31,0a2.53,2.53,0,0,0,2.43-1.59,3.21,3.21,0,0,0,0-2.43,2.54,2.54,0,0,0-2.48-1.52h-4Zm2.43,7.73H84.64v3.9h30.72v-3.9h0ZM64.72,181.62l-0.16.06a2.38,2.38,0,0,0-1.51,1.52,2.79,2.79,0,0,0-.08,1.32,2.67,2.67,0,0,0,.52,1.19,2.37,2.37,0,0,0,1.94.87h69.16a2.37,2.37,0,0,0,1.94-.87h0a2.62,2.62,0,0,0,.51-1.18,2.79,2.79,0,0,0-.08-1.32,2.38,2.38,0,0,0-1.51-1.52l-0.16-.06H64.72Zm65.56-14.3V164c0-.93-1.82-2-3.61-3-0.66-.38-1.31-0.77-2-1.24h0c-12.07-8.11-12.15-24-12.22-39.56q0-1.78,0-3.55H87.6c0,1.19,0,2.37,0,3.55-0.08,15.53-.16,31.45-12.22,39.55-0.71.47-1.36,0.86-2,1.24-1.79,1-3.61,2.11-3.61,3v3.37h60.56Zm-64-1.09V164c0-2.88,2.67-4.44,5.3-6,0.68-.4,1.35-0.79,1.85-1.12,10.57-7.1,10.64-22.1,10.72-36.74l0-2.32a3.34,3.34,0,0,1-3-3.31h0v-3a5.71,5.71,0,0,1-3.85-3.5,6.74,6.74,0,0,1,.07-5,5.72,5.72,0,0,1,4-3.42A23.2,23.2,0,0,1,81,79.79c2.54-5.94,7.28-11.27,12.76-16.31a7.55,7.55,0,0,1-1.46-2.91A8,8,0,0,1,95,52.47h0a8.05,8.05,0,0,1,10,0,8,8,0,0,1,2.66,8.09,7.52,7.52,0,0,1-1.46,2.91c5.48,5,10.22,10.37,12.76,16.31a23.2,23.2,0,0,1-.47,19.75,5.72,5.72,0,0,1,4,3.42,6.73,6.73,0,0,1,.07,5,5.71,5.71,0,0,1-3.85,3.5v3h0a3.35,3.35,0,0,1-3,3.32c0,0.77,0,1.54,0,2.32,0.07,14.64.15,29.65,10.72,36.75h0c0.49,0.33,1.17.72,1.84,1.12,2.63,1.54,5.3,3.1,5.3,6v2.27a8.15,8.15,0,0,1,3.65,1.69,8.49,8.49,0,0,1,2.7,4,8.81,8.81,0,0,1,.17,4.8,8.27,8.27,0,0,1-1.48,3.07,5.71,5.71,0,0,1,1.46,2.37,6.15,6.15,0,0,1,.2,2.93,6.07,6.07,0,0,1-1.19,2.71h0a5.69,5.69,0,0,1-4.61,2.18H65.42a5.69,5.69,0,0,1-4.61-2.19,6.09,6.09,0,0,1-1.19-2.71,6.19,6.19,0,0,1,.2-2.93,5.73,5.73,0,0,1,1.46-2.36,8.31,8.31,0,0,1-1.48-3.07,8.81,8.81,0,0,1,.17-4.8,8.48,8.48,0,0,1,2.7-4,8.15,8.15,0,0,1,3.65-1.69h0Z"/></svg>