<svg id="Layer_1" data-name="Layer 1" xmlns="http://www.w3.org/2000/svg" viewBox="0 0 200 200"><defs><style>.cls-1{fill:none;}.cls-2{fill:#4a4b4c;}</style></defs><title>Chess-Pieces</title><rect class="cls-1" width="200" height="200"/><path class="cls-2" d="M66.3,166.23V164c0-2.88,2.67-4.44,5.31-6,0.68-.4,1.35-0.79,1.85-1.12,10.57-7.1,10.65-22.11,10.72-36.76v-0.16h31.65v0.16c0.07,14.65.15,29.65,10.72,36.76h0c0.49,0.33,1.17.73,1.84,1.12,2.63,1.54,5.3,3.1,5.3,6v2.28H66.3Zm17.89-48.46a3.34,3.34,0,0,1-3-3.31h0v-0.84h37.55v0.84h0a3.35,3.35,0,0,1-3,3.32H84.19Zm-3-6.32a5.71,5.71,0,0,1-3.85-3.5,6.74,6.74,0,0,1,.07-5,5.72,5.72,0,0,1,4-3.42h37a5.72,5.72,0,0,1,4,3.42,6.73,6.73,0,0,1,.07,5,5.71,5.71,0,0,1-3.85,3.5H81.22Zm-0.64-14.1A22.87,22.87,0,0,1,81,79.75c2.54-5.94,7.28-11.28,12.76-16.31a7.54,7.54,0,0,1-1.46-2.91A8,8,0,0,1,95,52.43h0a8.06,8.06,0,0,1,10,0,8,8,0,0,1,2.67,8.1,7.51,7.51,0,0,1-1.46,2.91c5.48,5,10.23,10.37,12.76,16.31a22.87,22.87,0,0,1,.43,17.6H80.58Zm57.3,71a8.56,8.56,0,0,1,2.17,3.54,8.82,8.82,0,0,1,.17,4.8,8.3,8.3,0,0,1-1.24,2.73H61a8.31,8.31,0,0,1-1.24-2.73,8.82,8.82,0,0,1,.17-4.8,8.58,8.58,0,0,1,2.17-3.54h75.76ZM140,181.62c0.08,0.18.14,0.36,0.2,0.54a6.16,6.16,0,0,1,.2,2.94,6.07,6.07,0,0,1-1.19,2.71h0a5.69,5.69,0,0,1-4.61,2.18H65.41a5.69,5.69,0,0,1-4.62-2.19,6.1,6.1,0,0,1-1.19-2.71,6.2,6.2,0,0,1,.2-2.94c0.06-.18.13-0.36,0.2-0.54h80Z"/></svg>