<svg id="Layer_1" data-name="Layer 1" xmlns="http://www.w3.org/2000/svg" viewBox="0 0 200 200"><defs><style>.cls-1{fill:none;}.cls-2{fill:#fff;fill-rule:evenodd;}.cls-3{fill:#4a4b4c;}</style></defs><title>Chess-Pieces</title><rect class="cls-1" x="0.84" width="200" height="200"/><path class="cls-2" d="M68,167.78h0V164c0-2.48,3.81-4,6.39-5.69,12.32-8.28,12-48.38,12.18-64.66H85.26A1.65,1.65,0,0,1,83.61,92V87.51c-5.82-.16-5.71-8.94.12-8.94h2.84C86.1,66.38,80.77,54,74.31,43.55a0.91,0.91,0,0,1,.1-1.2h0C78.78,38,86.65,36.52,93.69,36A5.84,5.84,0,0,1,97,30.17V24.29H90.45a1.23,1.23,0,0,1-1.23-1.23V19.71a1.23,1.23,0,0,1,1.23-1.23H97V12a1.24,1.24,0,0,1,1.23-1.23h3.35A1.23,1.23,0,0,1,102.82,12v6.48h6.56a1.23,1.23,0,0,1,1.23,1.23v3.35a1.23,1.23,0,0,1-1.23,1.23h-6.56V30.1a5.85,5.85,0,0,1,3.49,6c6.92,0.49,14.62,2,19,6.17a0.9,0.9,0,0,1,.22,1.29c-7,11.28-12.18,21.82-12.11,35h2.85c5.83,0,5.94,8.78.12,8.94V92a1.65,1.65,0,0,1-1.64,1.64h-1.33c0.18,16.28-.14,56.38,12.18,64.66C128.18,160,132,161.48,132,164v3.82h0c6.76,0,9.12,8.54,4,12.3,4.34,1.59,3.32,8.2-1.44,8.2H65.42c-4.76,0-5.79-6.61-1.44-8.2-5.09-3.76-2.73-12.3,4-12.3h0Z"/><path class="cls-3" d="M68,169.48h0a5,5,0,0,0-3.21,1.07,5.08,5.08,0,0,0-1.61,2.4,5.42,5.42,0,0,0-.1,2.95,5,5,0,0,0,1.9,2.81l1,0.75h68l1-.75a5,5,0,0,0,1.9-2.81,5.43,5.43,0,0,0-.1-2.95,5.08,5.08,0,0,0-1.61-2.4,5,5,0,0,0-3.21-1.07H68ZM88.26,78.11h23.45a51.35,51.35,0,0,1,3.52-18.37,98.85,98.85,0,0,1,8.54-16.58,19.25,19.25,0,0,0-7.48-3.74,50.27,50.27,0,0,0-10.1-1.63l-1.66-.12L104.61,36a4.36,4.36,0,0,0-1.31-3.6,4.54,4.54,0,0,0-.54-0.41,4.82,4.82,0,0,0-.6-0.33h0l-1-.45V22.59h7.79v-2.4h-7.79V12.48h-2.4v7.71H90.92v2.4h7.79v8.65l-1,.46a4,4,0,0,0-2.16,2.51,4.77,4.77,0,0,0-.15.78,6.07,6.07,0,0,0,0,.92v0l0.07,1.66-1.66.11a50.47,50.47,0,0,0-10.28,1.65,19.84,19.84,0,0,0-7.09,3.43l-0.37.34a87.52,87.52,0,0,1,10.7,24.74c0.42,1.77.77,3.53,1,5.26s0.4,3.29.48,5h0Zm23.46,2.16h-28a2.54,2.54,0,0,0-2.48,1.52,3.21,3.21,0,0,0,0,2.43,2.53,2.53,0,0,0,2.43,1.59l1.67,0h29.36l1.66,0a2.53,2.53,0,0,0,2.43-1.59,3.21,3.21,0,0,0,0-2.43,2.54,2.54,0,0,0-2.48-1.52h-4.54Zm3,7.74H85.32V91.9h29.36V88h0Zm-3,6H88.28l0,2.27c-0.16,17.85-.48,54.69-12.74,63.24h0l-0.14.1h0c-0.71.47-1.36,0.86-2,1.24-1.79,1-3.61,2.11-3.61,3v3.37h60.56V164c0-.93-1.82-2-3.61-3-0.66-.38-1.31-0.76-2-1.24h0c-12.43-8.35-12.75-45.42-12.91-63.35l0-2.27h0Zm-47,87.56-0.16.06A2.38,2.38,0,0,0,63,183.2a2.78,2.78,0,0,0-.08,1.32,2.66,2.66,0,0,0,.51,1.19,2.37,2.37,0,0,0,1.94.87h69.16a2.37,2.37,0,0,0,1.94-.87h0a2.64,2.64,0,0,0,.52-1.18,2.79,2.79,0,0,0-.08-1.32,2.39,2.39,0,0,0-1.51-1.52l-0.16-.06H64.72Zm1.59-15.39V164c0-2.88,2.67-4.44,5.3-6,0.67-.39,1.34-0.78,1.83-1.11h0l0.13-.09h0c10.83-7.55,11.14-43.19,11.29-60.47v-1a3.35,3.35,0,0,1-3-3.31h0V89a5.71,5.71,0,0,1-3.85-3.5,6.72,6.72,0,0,1,.07-5,5.81,5.81,0,0,1,5.61-3.6h1q-0.13-1.6-.36-3.23c-0.24-1.68-.57-3.33-1-5A84.7,84.7,0,0,0,72.86,44.44h0A3,3,0,0,1,72.62,44a2.73,2.73,0,0,1-.14-0.5h0a2.62,2.62,0,0,1,0-.76L72,42.26l1.15-1.14a21.71,21.71,0,0,1,9.38-5,51.29,51.29,0,0,1,9.47-1.65,8.21,8.21,0,0,1,.25-1.19,7.25,7.25,0,0,1,3-4.08V26H90.45a2.93,2.93,0,0,1-2.07-.85h0a2.92,2.92,0,0,1-.85-2.06h0V19.71h0a2.93,2.93,0,0,1,2.92-2.93H95.3V12h0a2.93,2.93,0,0,1,2.92-2.93h3.37A2.93,2.93,0,0,1,104.52,12h0v4.77h4.86a2.93,2.93,0,0,1,2.93,2.92h0v3.35h0A2.93,2.93,0,0,1,109.39,26h-4.86v3.08l0.08,0A7.41,7.41,0,0,1,108,34.51a51,51,0,0,1,9.27,1.63A22,22,0,0,1,126.39,41a2.61,2.61,0,0,1,.26.23h0a2.67,2.67,0,0,1,.34.43,2.58,2.58,0,0,1,0,2.82,97.46,97.46,0,0,0-8.56,16.5,48.35,48.35,0,0,0-3.28,15.92h1.13a5.81,5.81,0,0,1,5.61,3.6,6.72,6.72,0,0,1,.07,5,5.71,5.71,0,0,1-3.85,3.5v3h0a3.35,3.35,0,0,1-3,3.31v1c0.15,17.34.47,53.2,11.4,60.55h0c0.49,0.33,1.17.72,1.84,1.12,2.63,1.54,5.31,3.1,5.31,6v2.27a8.15,8.15,0,0,1,3.65,1.69,8.47,8.47,0,0,1,2.7,4,8.82,8.82,0,0,1,.17,4.8,8.28,8.28,0,0,1-1.49,3.07,5.7,5.7,0,0,1,1.46,2.37,6.15,6.15,0,0,1,.2,2.93,6.07,6.07,0,0,1-1.19,2.72h0a5.69,5.69,0,0,1-4.61,2.18H65.42a5.69,5.69,0,0,1-4.62-2.19,6.08,6.08,0,0,1-1.19-2.71,6.19,6.19,0,0,1,.2-2.93,5.7,5.7,0,0,1,1.46-2.36,8.28,8.28,0,0,1-1.48-3.07,8.82,8.82,0,0,1,.17-4.8,8.47,8.47,0,0,1,2.7-4,8.14,8.14,0,0,1,3.65-1.69h0Z"/></svg>