<svg id="Layer_1" data-name="Layer 1" xmlns="http://www.w3.org/2000/svg" viewBox="0 0 200 200"><defs><style>.cls-1{fill:none;}.cls-2{fill:#4a4b4c;}</style></defs><title>Chess-Pieces</title><rect class="cls-1" x="0.84" width="200" height="200"/><path class="cls-2" d="M66.3,166.22V164c0-2.88,2.67-4.45,5.31-6,0.67-.39,1.34-0.78,1.83-1.11h0l0.13-.09h0c10.6-7.39,11.12-41.69,11.28-59.35h30.3c0.16,17.73.69,52.24,11.4,59.43h0c0.49,0.33,1.17.73,1.84,1.12,2.63,1.54,5.31,3.1,5.31,6v2.27H66.3Zm18.57-71a3.35,3.35,0,0,1-3-3.31h0V91.09H118.1v0.84h0a3.35,3.35,0,0,1-3,3.32H84.87Zm-3-6.32a5.71,5.71,0,0,1-3.85-3.5,6.72,6.72,0,0,1,.07-5,5.81,5.81,0,0,1,5.61-3.6h32.54a5.82,5.82,0,0,1,5.61,3.6,6.72,6.72,0,0,1,.07,5,5.71,5.71,0,0,1-3.85,3.5H81.9Zm2.64-14.27c0-.36-0.09-0.71-0.14-1.07-0.24-1.68-.57-3.34-1-5A84.72,84.72,0,0,0,72.85,44.4h0a3.08,3.08,0,0,1-.22-0.46,2.73,2.73,0,0,1-.14-0.5h0a2.63,2.63,0,0,1,0-.76L72,42.22l1.15-1.14a21.74,21.74,0,0,1,9.39-5,51.19,51.19,0,0,1,9.48-1.65,8.11,8.11,0,0,1,.25-1.19,7.25,7.25,0,0,1,3-4.09V25.95H90.45a2.93,2.93,0,0,1-2.07-.86h0A2.92,2.92,0,0,1,87.52,23h0V19.65h0a2.93,2.93,0,0,1,2.92-2.93H95.3V11.95h0A2.93,2.93,0,0,1,98.23,9h3.37a2.93,2.93,0,0,1,2.93,2.92h0v4.77h4.86a2.93,2.93,0,0,1,2.93,2.92h0V23h0a2.93,2.93,0,0,1-2.92,2.93h-4.87V29l0.08,0a7.5,7.5,0,0,1,1,.75A7.36,7.36,0,0,1,108,34.46a50.85,50.85,0,0,1,9.28,1.63,22.05,22.05,0,0,1,9.17,4.81,2.61,2.61,0,0,1,.26.23h0a2.68,2.68,0,0,1,.34.43,2.58,2.58,0,0,1,0,2.82,97.47,97.47,0,0,0-8.56,16.5,49.08,49.08,0,0,0-3.17,13.76H84.55Zm53.34,93.72a8.57,8.57,0,0,1,2.17,3.54,8.81,8.81,0,0,1,.17,4.8,8.33,8.33,0,0,1-1.24,2.73H61a8.32,8.32,0,0,1-1.24-2.73,8.84,8.84,0,0,1,.17-4.8,8.57,8.57,0,0,1,2.17-3.54h75.77ZM140,181.62c0.08,0.18.15,0.36,0.21,0.54a6.18,6.18,0,0,1,.2,2.94,6.07,6.07,0,0,1-1.2,2.72h0a5.69,5.69,0,0,1-4.61,2.18H65.41a5.69,5.69,0,0,1-4.62-2.19,6.09,6.09,0,0,1-1.2-2.71,6.21,6.21,0,0,1,.2-2.94c0.06-.18.13-0.36,0.2-0.54h80Z"/></svg>