<svg id="Layer_1" data-name="Layer 1" xmlns="http://www.w3.org/2000/svg" viewBox="0 0 200 200"><defs><style>.cls-1{fill:none;}.cls-2{fill:#4a4b4c;}</style></defs><title>Chess-Pieces</title><rect class="cls-1" x="0.84" width="200" height="200"/><path class="cls-2" d="M75.55,144.64c-0.8-9.93,4.76-16.53,10.93-23.85A84.8,84.8,0,0,0,95,109.41a4,4,0,0,0,.6-3,3.21,3.21,0,0,0-.57-1.21,3.3,3.3,0,0,0-.94-0.85,2.19,2.19,0,0,0-1.57-.33,37.53,37.53,0,0,0-6.94,2.16h0a39.83,39.83,0,0,0-6.06,3.52c-1.08,3.64-2.95,6-5.14,7.23a8.78,8.78,0,0,1-5.26,1.13,10.9,10.9,0,0,1-5-1.81A12.41,12.41,0,0,1,58.77,108l-0.1-.65L59,106.8,77.16,78.6c0.63-4.93,3.57-8,7.62-10a41.84,41.84,0,0,1,12-3.34V53.49a3.5,3.5,0,0,1,.56-2,2.61,2.61,0,0,1,1-.9,2.84,2.84,0,0,1,1.23-.27,4.74,4.74,0,0,1,2.56.91h0a59.83,59.83,0,0,1,9.25,7.9,75.09,75.09,0,0,1,8,10c12.6,18.61,18.63,44.29,10.29,64.77h0a47.11,47.11,0,0,0-2.48,9,51.47,51.47,0,0,0-.59,5.29H75.55v-3.5h0Zm51.08,5.66h1.32a5.74,5.74,0,0,1,2.55.61,6.25,6.25,0,0,1,3.36,5.24l0.6,10H67.23l0.59-10v0h0a6.5,6.5,0,0,1,.21-1.28,6.6,6.6,0,0,1,.45-1.19,5.88,5.88,0,0,1,5.29-3.34h52.85Zm12,18.07a8.8,8.8,0,0,1,2.41,8.39,8.26,8.26,0,0,1-1.23,2.7h-78a8.17,8.17,0,0,1-1.23-2.7A8.78,8.78,0,0,1,63,168.37h75.63Zm2.18,13.25c0.08,0.18.14,0.36,0.2,0.54a6.21,6.21,0,0,1,.2,2.94,6.09,6.09,0,0,1-1.2,2.71h0a5.69,5.69,0,0,1-4.61,2.18H66.25a5.7,5.7,0,0,1-4.62-2.19,6.1,6.1,0,0,1-1.19-2.71,6.19,6.19,0,0,1,.2-2.94c0.06-.18.13-0.36,0.2-0.54h80Z"/></svg>