<svg id="Layer_1" data-name="Layer 1" xmlns="http://www.w3.org/2000/svg" viewBox="0 0 200 200"><defs><style>.cls-1{fill:none;}.cls-2{fill:#fff;fill-rule:evenodd;}.cls-3{fill:#4a4b4c;}</style></defs><title>Chess-Pieces</title><rect class="cls-1" x="0.84" y="0.51" width="200" height="200"/><path class="cls-2" d="M77.26,144.61c-1.18-13.95,11.51-21.3,19.2-34.31,2.77-4.68-1.29-8.59-4.32-7.89-6,1.4-8.61,2.54-14.08,6.27-3.3,12.65-16.15,8-17.6-.94L78.81,79.23c0.88-9,10.52-11.17,19.71-12.5V53.53c0-1.8,1.38-1.8,2.74-.87,22.45,15.35,38.25,53,26.95,80.62A50.73,50.73,0,0,0,124.88,152h3a4.36,4.36,0,0,1,4.25,4.25l0.68,11.51a6.84,6.84,0,0,1,4,12.3c4.34,1.59,3.32,8.2-1.44,8.2H66.26c-4.76,0-5.78-6.61-1.44-8.2a6.84,6.84,0,0,1,4-12.3l0.68-11.51A4.36,4.36,0,0,1,73.79,152h3.48v-7.41h0Z"/><path class="cls-3" d="M75.56,144.66c-0.8-9.92,4.76-16.52,10.92-23.84A84.79,84.79,0,0,0,95,109.44a4,4,0,0,0,.6-3,3.21,3.21,0,0,0-.57-1.2,3.27,3.27,0,0,0-.94-0.85,2.19,2.19,0,0,0-1.57-.33,37.51,37.51,0,0,0-6.93,2.16h0a39.81,39.81,0,0,0-6.06,3.51c-1.08,3.64-2.95,6-5.14,7.23a8.78,8.78,0,0,1-5.26,1.12,10.89,10.89,0,0,1-5-1.81A12.4,12.4,0,0,1,58.79,108l-0.1-.65,0.35-.55L77.17,78.64c0.63-4.93,3.57-8,7.62-10a41.8,41.8,0,0,1,12-3.34V53.53a3.5,3.5,0,0,1,.56-2,2.62,2.62,0,0,1,1-.9,2.83,2.83,0,0,1,1.23-.27,4.73,4.73,0,0,1,2.56.91h0a59.72,59.72,0,0,1,9.25,7.89,75,75,0,0,1,8,10c12.6,18.61,18.62,44.28,10.28,64.74h0a47,47,0,0,0-2.48,9,56,56,0,0,0-.69,7.45h1.31a5.82,5.82,0,0,1,1.33.16,5.75,5.75,0,0,1,1.22.45,6.25,6.25,0,0,1,3.36,5.24l0.59,10a8.18,8.18,0,0,1,3.72,1.72,8.64,8.64,0,0,1,2.71,4,8.75,8.75,0,0,1,.19,4.82,8.18,8.18,0,0,1-1.48,3,5.7,5.7,0,0,1,1.46,2.36,6.19,6.19,0,0,1,.2,2.93,6.07,6.07,0,0,1-1.19,2.71h0a5.69,5.69,0,0,1-4.61,2.18H66.26a5.69,5.69,0,0,1-4.61-2.19,6.08,6.08,0,0,1-1.19-2.71,6.18,6.18,0,0,1,.2-2.93,5.7,5.7,0,0,1,1.46-2.36,8.14,8.14,0,0,1-1.48-3,8.76,8.76,0,0,1,2.9-8.82,8.17,8.17,0,0,1,3.72-1.73l0.6-10v0h0a6.48,6.48,0,0,1,.21-1.28,6.67,6.67,0,0,1,.45-1.19,5.88,5.88,0,0,1,5.29-3.34h1.77v-5.66h0ZM79,151.57h44.22a62.54,62.54,0,0,1,.77-9.26,50.15,50.15,0,0,1,2.65-9.63l0,0c7.91-19.36,2.11-43.81-9.93-61.6A71.64,71.64,0,0,0,109,61.51a56.4,56.4,0,0,0-8.7-7.43h0L100.22,54V68.2l-1.47.21c-4.46.65-9,1.5-12.45,3.23-3.17,1.59-5.43,4-5.8,7.75l0,0.42-0.22.34-18,27.94A9,9,0,0,0,66,113.46a7.49,7.49,0,0,0,3.41,1.26A5.44,5.44,0,0,0,72.7,114c1.57-.91,2.93-2.74,3.72-5.77l0.16-.62,0.52-.36a44.89,44.89,0,0,1,7.1-4.15h0a40.38,40.38,0,0,1,7.55-2.37,5.57,5.57,0,0,1,4.07.71,6.7,6.7,0,0,1,1.93,1.73,6.63,6.63,0,0,1,1.17,2.48,7.34,7.34,0,0,1-1,5.49A88.07,88.07,0,0,1,89.08,123c-5.7,6.77-10.84,12.87-10.11,21.47v7.1h0Zm44.19,2.16H73.74a2.51,2.51,0,0,0-2.19,1.45,2.94,2.94,0,0,0-.21.55,3.25,3.25,0,0,0-.11.62h0v0l-0.65,11h60.5l-0.65-11A2.84,2.84,0,0,0,129,154a2.42,2.42,0,0,0-1-.25h-4.77ZM66.84,179.46h68l1-.74a4.93,4.93,0,0,0,1.9-2.78,5.34,5.34,0,0,0-.12-2.94,5.23,5.23,0,0,0-1.63-2.43,4.92,4.92,0,0,0-3.17-1.09h-64a4.91,4.91,0,0,0-3.11,1.09A5.23,5.23,0,0,0,64,173a5.33,5.33,0,0,0-.12,2.94,4.93,4.93,0,0,0,1.9,2.78l1,0.74h0Zm69.28,2.16H65.56l-0.16.06a2.38,2.38,0,0,0-1.51,1.52,2.77,2.77,0,0,0-.08,1.32,2.66,2.66,0,0,0,.51,1.19,2.37,2.37,0,0,0,1.94.87h69.16a2.37,2.37,0,0,0,1.94-.87h0a2.65,2.65,0,0,0,.51-1.18,2.8,2.8,0,0,0-.08-1.32,2.39,2.39,0,0,0-1.51-1.52l-0.16-.06h0Z"/></svg>