<svg id="Layer_1" data-name="Layer 1" xmlns="http://www.w3.org/2000/svg" viewBox="0 0 200 200"><defs><style>.cls-1{fill:none;}.cls-2{fill:#4a4b4c;}</style></defs><title>Chess-Pieces</title><rect class="cls-1" width="200" height="200"/><path class="cls-2" d="M70.77,169.11v-1.76c0-2.62,2.36-4,4.68-5.35,0.59-.34,1.17-0.68,1.58-1,4.91-3.3,7.72-8.52,9.34-14.58A74.28,74.28,0,0,0,88.44,130h23.12a74.28,74.28,0,0,0,2.07,16.47c1.62,6.06,4.44,11.28,9.34,14.58h0c0.41,0.27,1,.62,1.58,1,2.32,1.36,4.68,2.73,4.68,5.35v1.76H70.77ZM88.5,127.83h0a3.13,3.13,0,0,1-1.62-.86h0a3.1,3.1,0,0,1-.91-2.2h0v-0.24H114v0.24h0a3.12,3.12,0,0,1-2.53,3.06h-23ZM86,122.37a5.14,5.14,0,0,1-3.3-3.1,6,6,0,0,1,.06-4.49,5.18,5.18,0,0,1,4.38-3.21H112.9a5.17,5.17,0,0,1,4.37,3.21,6,6,0,0,1,.06,4.49,5.14,5.14,0,0,1-3.3,3.1H86Zm-0.72-13A18.22,18.22,0,0,1,81.7,98.59h0A18.29,18.29,0,0,1,100,80.29h0a18.28,18.28,0,0,1,18.3,18.29h0a18.2,18.2,0,0,1-1.75,7.82,18,18,0,0,1-.91,1.69c-0.27.45-.57,0.89-0.88,1.31H85.24ZM133,171.27a7.66,7.66,0,0,1,1.66,2.87,7.82,7.82,0,0,1,.15,4.26,7.42,7.42,0,0,1-.87,2.08H66a7.4,7.4,0,0,1-.87-2.08,7.82,7.82,0,0,1,.15-4.26A7.65,7.65,0,0,1,67,171.27h66Zm1.68,11.37c0,0.1.07,0.2,0.11,0.3a5.55,5.55,0,0,1,.18,2.64,5.47,5.47,0,0,1-1.07,2.44h0a5.13,5.13,0,0,1-4.15,2H70.25a5.12,5.12,0,0,1-4.15-2h0A5.48,5.48,0,0,1,65,185.58a5.58,5.58,0,0,1,.18-2.64c0-.1.07-0.2,0.11-0.3h69.4Z"/></svg>