<svg id="Layer_1" data-name="Layer 1" xmlns="http://www.w3.org/2000/svg" viewBox="0 0 200 200"><defs><style>.cls-1{fill:none;}.cls-2{fill:#fff;fill-rule:evenodd;}.cls-3{fill:#4a4b4c;}</style></defs><title>Chess-Pieces</title><rect class="cls-1" width="200" height="200"/><path class="cls-2" d="M72.48,170.65h0v-3.29c0-2.13,3.27-3.4,5.5-4.9,10.6-7.12,12.08-22.25,12.24-36.26H89.08a1.42,1.42,0,0,1-1.41-1.41V121c-5-.14-4.91-7.69.1-7.69h4.42a16.6,16.6,0,1,1,15.62,0h4.42c5,0,5.11,7.56.1,7.69v3.84a1.42,1.42,0,0,1-1.41,1.41h-1.15c0.15,14,1.64,29.14,12.24,36.26,2.23,1.5,5.5,2.76,5.5,4.9v3.29h0c5.81,0,7.85,7.35,3.47,10.58a3.64,3.64,0,0,1-1.24,7.05H70.26A3.64,3.64,0,0,1,69,181.23c-4.38-3.23-2.35-10.58,3.47-10.58h0Z"/><path class="cls-3" d="M72.49,172.35h0a4,4,0,0,0-2.61.87,4.11,4.11,0,0,0-1.31,2,4.42,4.42,0,0,0-.08,2.41A4,4,0,0,0,70,179.86l0.85,0.63h58.26l0.84-.62a4,4,0,0,0,1.54-2.29,4.43,4.43,0,0,0-.08-2.41,4.14,4.14,0,0,0-1.31-2,4,4,0,0,0-2.61-.87h-55ZM94.9,112.81h10.16l2-1a15,15,0,0,0,6.46-6.78,14.83,14.83,0,0,0,1.43-6.36h0A14.92,14.92,0,0,0,100,83.72h0A14.92,14.92,0,0,0,85.1,98.62h0a14.85,14.85,0,0,0,4.33,10.5A15.37,15.37,0,0,0,93,111.77h0l1.9,1h0ZM101,115H87.77a2,2,0,0,0-1.91,1.16,2.51,2.51,0,0,0,0,1.91,2,2,0,0,0,1.87,1.22l1.67,0h21.28l1.64,0a2,2,0,0,0,1.87-1.22,2.52,2.52,0,0,0,0-1.91,2,2,0,0,0-1.91-1.16H101ZM70.1,182.65l-0.5.18A1.82,1.82,0,0,0,68.44,184a2.16,2.16,0,0,0-.06,1,2,2,0,0,0,.39.91h0a1.81,1.81,0,0,0,1.48.66h59.49a1.81,1.81,0,0,0,1.48-.65h0a2,2,0,0,0,.39-0.91,2.14,2.14,0,0,0-.06-1,1.82,1.82,0,0,0-1.15-1.16l-0.5-.18H70.1Zm55.71-12.45v-2.83c0-.66-1.5-1.54-3-2.41-0.56-.33-1.13-0.66-1.75-1.08h0c-5.69-3.83-8.92-9.73-10.74-16.52-1.72-6.45-2.16-13.7-2.25-20.7H91.92c-0.09,7-.53,14.25-2.25,20.7-1.81,6.79-5,12.69-10.74,16.52-0.62.42-1.19,0.75-1.75,1.08-1.48.87-3,1.75-3,2.41v2.83h51.61Zm-15.18-48.73H89.37v3h21.26v-3h0ZM70.78,169.12v-1.76c0-2.62,2.36-4,4.68-5.35,0.59-.34,1.17-0.68,1.58-1,4.9-3.29,7.72-8.52,9.34-14.57a79.64,79.64,0,0,0,2.12-18.63,3.13,3.13,0,0,1-1.62-.86h0a3.11,3.11,0,0,1-.91-2.2h0v-2.4a5.14,5.14,0,0,1-3.3-3.1,6,6,0,0,1,.06-4.49,5.17,5.17,0,0,1,4.37-3.2L87,111.52a18.24,18.24,0,0,1-5.32-12.9h0A18.28,18.28,0,0,1,100,80.33h0a18.28,18.28,0,0,1,18.29,18.29h0a18.19,18.19,0,0,1-1.75,7.81,17.87,17.87,0,0,1-.91,1.69,18.41,18.41,0,0,1-2.74,3.47,5.17,5.17,0,0,1,4.37,3.2,6,6,0,0,1,.06,4.49,5.14,5.14,0,0,1-3.3,3.1v2.4h0a3.12,3.12,0,0,1-2.53,3.05,79.72,79.72,0,0,0,2.12,18.63c1.62,6.06,4.43,11.28,9.34,14.57h0c0.41,0.27,1,.62,1.58,1,2.32,1.36,4.68,2.73,4.68,5.35v1.76a7.22,7.22,0,0,1,3.05,1.46,7.54,7.54,0,0,1,2.4,3.57,7.82,7.82,0,0,1,.15,4.26,7.4,7.4,0,0,1-1.19,2.56,5.15,5.15,0,0,1,1.17,2,5.54,5.54,0,0,1,.18,2.64A5.47,5.47,0,0,1,133.9,188h0a5.13,5.13,0,0,1-4.15,2H70.26a5.12,5.12,0,0,1-4.15-2h0A5.49,5.49,0,0,1,65,185.58a5.58,5.58,0,0,1,.18-2.64,5.17,5.17,0,0,1,1.17-2,7.33,7.33,0,0,1-1.19-2.56,7.82,7.82,0,0,1,.15-4.26,7.53,7.53,0,0,1,2.4-3.56,7.22,7.22,0,0,1,3.05-1.46h0Z"/></svg>