<svg id="Layer_1" data-name="Layer 1" xmlns="http://www.w3.org/2000/svg" viewBox="0 0 200 200"><defs><style>.cls-1{fill:none;}.cls-2{fill:#fff;fill-rule:evenodd;}.cls-3{fill:#4a4b4c;}</style></defs><title>Chess-Pieces</title><rect class="cls-1" x="0.15" width="200" height="200"/><path class="cls-2" d="M86.58,78.56c-0.47-12.18-5.8-24.58-12.27-35a0.93,0.93,0,0,1,1.13-1.39c5.57,1.9,9.43,3.77,13.23,7.48a36.92,36.92,0,0,1,7.59-9,6.17,6.17,0,1,1,7.47,0,34.73,34.73,0,0,1,7.45,8.94c3.79-3.7,7.65-5.56,13.2-7.45a0.93,0.93,0,0,1,1.13,1.39c-7,11.28-12.18,21.82-12.11,35h2.85c5.83,0,5.94,8.78.12,8.94V92a1.66,1.66,0,0,1-1.64,1.64h-1.33c0.18,16.28-.14,56.38,12.18,64.66C128.17,160,132,161.48,132,164v3.82h0c6.76,0,9.12,8.54,4,12.3,4.34,1.59,3.32,8.2-1.44,8.2H65.42c-4.76,0-5.78-6.61-1.44-8.2-5.09-3.76-2.73-12.3,4-12.3h0V164c0-2.48,3.81-4,6.39-5.69,12.32-8.28,12-48.38,12.18-64.66H85.26A1.65,1.65,0,0,1,83.62,92V87.51c-5.82-.16-5.71-8.94.12-8.94h2.84Z"/><path class="cls-3" d="M88.34,80.27H83.74a2.54,2.54,0,0,0-2.48,1.52,3.23,3.23,0,0,0,0,2.43,2.53,2.53,0,0,0,2.43,1.59l1.67,0h29.36l1.67,0a2.53,2.53,0,0,0,2.43-1.59A3.23,3.23,0,0,0,119,83a3.17,3.17,0,0,0-.25-1.21,2.54,2.54,0,0,0-2.48-1.52H88.34Zm23.37-2.16a51.33,51.33,0,0,1,3.52-18.37A94.59,94.59,0,0,1,123,44.47a38.14,38.14,0,0,0-5,2.23,24.78,24.78,0,0,0-5.57,4.13l-1.59,1.55-1.08-1.94a28.07,28.07,0,0,0-2.91-4.22,40.25,40.25,0,0,0-4.18-4.29L101,40.54l1.69-1.24a4.25,4.25,0,0,0,1.65-2.4,4.58,4.58,0,0,0-.1-2.54,4.53,4.53,0,0,0-1.42-2.11,4.7,4.7,0,0,0-5.72,0h0a4.53,4.53,0,0,0-1.42,2.1,4.59,4.59,0,0,0-.1,2.54,4.25,4.25,0,0,0,1.65,2.4L99,40.54l-1.57,1.4a42.79,42.79,0,0,0-4.23,4.3,29.52,29.52,0,0,0-3,4.25L89,52.39l-1.56-1.53a24.86,24.86,0,0,0-5.58-4.15,37.81,37.81,0,0,0-5.06-2.25,86.2,86.2,0,0,1,9.91,23.42c0.42,1.77.77,3.53,1,5.26s0.4,3.29.48,5h23.45ZM85.32,88V91.9h29.36V88H85.32Zm3,6,0,2.27c-0.16,17.85-.48,54.69-12.74,63.24h0l-0.14.1h0c-0.71.47-1.36,0.86-2,1.24-1.79,1-3.61,2.11-3.61,3v3.37h60.56V164c0-.93-1.82-2-3.62-3-0.66-.38-1.31-0.76-2-1.24h0c-12.43-8.35-12.75-45.42-12.91-63.35l0-2.27H88.28ZM66,179.46h68l1-.75a5,5,0,0,0,1.9-2.81,5.42,5.42,0,0,0-.1-2.95,5.08,5.08,0,0,0-1.61-2.4,5,5,0,0,0-3.21-1.07H68a5,5,0,0,0-3.21,1.07,5.08,5.08,0,0,0-1.61,2.4,5.41,5.41,0,0,0-.1,2.95,5,5,0,0,0,1.9,2.81l1,0.75h0Zm69.28,2.16H64.72l-0.16.06a2.38,2.38,0,0,0-1.51,1.52,2.8,2.8,0,0,0-.08,1.32,2.67,2.67,0,0,0,.52,1.19,2.37,2.37,0,0,0,1.94.87h69.16a2.37,2.37,0,0,0,1.94-.87h0a2.64,2.64,0,0,0,.51-1.18,2.78,2.78,0,0,0-.08-1.32,2.39,2.39,0,0,0-1.51-1.52l-0.16-.06h0ZM84.77,76.86q-0.13-1.6-.36-3.23-0.37-2.52-1-5A84.68,84.68,0,0,0,72.86,44.44a2.73,2.73,0,0,1-.43-1.63A2.55,2.55,0,0,1,73,41.35h0a2.65,2.65,0,0,1,1.24-.83,2.76,2.76,0,0,1,1.73,0,47.16,47.16,0,0,1,7.55,3.18A28,28,0,0,1,88.32,47a34.78,34.78,0,0,1,2.25-3,44.06,44.06,0,0,1,3.21-3.4,7.54,7.54,0,0,1-1.46-2.92A8,8,0,0,1,95,29.63h0a8.06,8.06,0,0,1,10,0,8,8,0,0,1,2.66,8.09,7.49,7.49,0,0,1-1.47,2.92,40.78,40.78,0,0,1,3.18,3.4A33,33,0,0,1,111.57,47a27.93,27.93,0,0,1,4.75-3.25,47.33,47.33,0,0,1,7.53-3.17,2.77,2.77,0,0,1,1.73,0,2.63,2.63,0,0,1,1.24.83h0a2.55,2.55,0,0,1,.58,1.47,2.72,2.72,0,0,1-.43,1.63,97.62,97.62,0,0,0-8.56,16.5,48.37,48.37,0,0,0-3.28,15.92h1.13a5.81,5.81,0,0,1,5.61,3.6,6.73,6.73,0,0,1,.07,5,5.7,5.7,0,0,1-3.85,3.5v3h0a3.35,3.35,0,0,1-3,3.31v1c0.15,17.34.46,53.2,11.4,60.55h0c0.49,0.33,1.17.72,1.84,1.12,2.63,1.54,5.31,3.1,5.31,6v2.27a8.14,8.14,0,0,1,3.65,1.69,8.48,8.48,0,0,1,2.7,4,8.81,8.81,0,0,1,.17,4.8,8.27,8.27,0,0,1-1.48,3.07,5.72,5.72,0,0,1,1.46,2.37,6.16,6.16,0,0,1,.2,2.93,6.08,6.08,0,0,1-1.19,2.72h0a5.69,5.69,0,0,1-4.61,2.18H65.42a5.69,5.69,0,0,1-4.62-2.19,6.08,6.08,0,0,1-1.19-2.71,6.19,6.19,0,0,1,.2-2.93,5.69,5.69,0,0,1,1.46-2.36,8.28,8.28,0,0,1-1.48-3.07,8.82,8.82,0,0,1,.17-4.8,8.48,8.48,0,0,1,2.7-4,8.14,8.14,0,0,1,3.65-1.69V164c0-2.88,2.67-4.44,5.31-6,0.67-.39,1.34-0.78,1.83-1.11h0l0.13-.09h0c10.83-7.55,11.14-43.19,11.29-60.47v-1a3.35,3.35,0,0,1-3-3.31h0V89a5.71,5.71,0,0,1-3.85-3.5,6.72,6.72,0,0,1,.07-5,5.81,5.81,0,0,1,5.61-3.6h1Z"/></svg>