<svg id="Layer_1" data-name="Layer 1" xmlns="http://www.w3.org/2000/svg" viewBox="0 0 200 200"><defs><style>.cls-1{fill:none;}.cls-2{fill:#4a4b4c;}</style></defs><title>Chess-Pieces</title><rect class="cls-1" x="0.15" width="200" height="200"/><path class="cls-2" d="M83.89,73.09h0.28a3.52,3.52,0,0,1,1.45.45h0a3.53,3.53,0,0,1,1.78,2.87l1.11,9.79h2.67V76.62h0a3.52,3.52,0,0,1,3.52-3.52h10.58a3.52,3.52,0,0,1,3.52,3.52h0v9.6h2.67l1.12-10h0v0a3.57,3.57,0,0,1,.15-0.73h0a3.52,3.52,0,0,1,3.34-2.41h10.57a3.52,3.52,0,0,1,3.52,3.52h0v0h0c0,0.13,0,.24,0,0.33h0V77c0,0.09,0,.17,0,0.25h0l-4,26.27h0a3.09,3.09,0,0,1-3.24,3H77.24c-1.58-.09-3.12-0.58-3.43-3.05l-4-26.37h0a3.52,3.52,0,0,1,.66-2.59h0a3.52,3.52,0,0,1,2.29-1.38H73l10.84,0h0Zm37.63,35.64c-0.69.78-1.6,2.41-2.74,2.72H81.22c-1-.3-2-1.91-2.74-2.72h43Zm-2.74,4.88v0.84h0a3.35,3.35,0,0,1-3,3.32H84.19a3.35,3.35,0,0,1-3-3.31h0v-0.84h37.56Zm-3,6.32v0.16c0.07,14.65.15,29.66,10.72,36.76h0c0.49,0.33,1.17.73,1.84,1.12,2.63,1.54,5.31,3.1,5.31,6v2.28H66.3V164c0-2.88,2.67-4.44,5.3-6,0.68-.4,1.35-0.79,1.85-1.12,10.57-7.1,10.65-22.11,10.72-36.76v-0.16h31.65Zm22.06,48.46a8.58,8.58,0,0,1,2.17,3.54,8.82,8.82,0,0,1,.17,4.8,8.29,8.29,0,0,1-1.24,2.73H61a8.29,8.29,0,0,1-1.24-2.73,8.82,8.82,0,0,1,.17-4.8,8.58,8.58,0,0,1,2.18-3.54h75.76ZM140,181.62c0.08,0.18.15,0.36,0.2,0.54a6.18,6.18,0,0,1,.2,2.94,6.08,6.08,0,0,1-1.19,2.71h0a5.69,5.69,0,0,1-4.61,2.18H65.41a5.69,5.69,0,0,1-4.62-2.19,6.08,6.08,0,0,1-1.19-2.71,6.18,6.18,0,0,1,.2-2.94c0.06-.18.13-0.36,0.2-0.54h80Z"/></svg>