<svg id="Layer_1" data-name="Layer 1" xmlns="http://www.w3.org/2000/svg" viewBox="0 0 200 200"><defs><style>.cls-1{fill:none;}.cls-2{fill:#fff;fill-rule:evenodd;}.cls-3{fill:#4a4b4c;}</style></defs><title>Chess-Pieces</title><rect class="cls-1" x="0.15" y="0.51" width="200" height="200"/><path class="cls-2" d="M83.89,75.85a1.82,1.82,0,0,1,1.82,1.8L87,89h5.9V77.68a1.82,1.82,0,0,1,1.82-1.82h10.57a1.82,1.82,0,0,1,1.82,1.82V89H113l1.29-11.47a1.82,1.82,0,0,1,1.81-1.65h10.57A1.83,1.83,0,0,1,128.46,78l-4,26.34c-0.26,1.73-1.89,1.55-3.13,1.55a4.24,4.24,0,0,1-4.29,4.08v4.46a1.65,1.65,0,0,1-1.64,1.64h-1.33c0.18,16.28-.82,33.87,11.5,42.15C128.18,160,132,161.48,132,164v3.82h0c6.76,0,9.12,8.55,4,12.3,4.34,1.59,3.32,8.2-1.44,8.2H65.42c-4.76,0-5.78-6.61-1.44-8.2-5.09-3.76-2.73-12.3,4-12.3h0V164c0-2.48,3.81-4,6.39-5.69,12.32-8.28,11.32-25.87,11.5-42.15H84.57a1.65,1.65,0,0,1-1.64-1.64V110a4.24,4.24,0,0,1-4.29-4.08c-1.26,0-2.92.11-3.13-1.6l-4-26.38a1.82,1.82,0,0,1,1.53-2.07l10.83,0h0Z"/><path class="cls-3" d="M83.89,73.13h0.28a3.51,3.51,0,0,1,1.45.45h0a3.52,3.52,0,0,1,1.78,2.87l1.11,9.79h2.67V76.66h0a3.52,3.52,0,0,1,3.52-3.52h10.57a3.52,3.52,0,0,1,3.52,3.52h0v9.6h2.67l1.12-10h0a3.58,3.58,0,0,1,.15-0.73h0a3.49,3.49,0,0,1,.3-0.66,3.53,3.53,0,0,1,3-1.75h10.57c1,0,1.86,1.42,2.49,2.06a3.52,3.52,0,0,1,1,2.48h0v0h0c0,0.13,0,.24,0,0.33h0v0.06c0,0.09,0,.17,0,0.25h0l-4,25.24h0c-0.37,2.47-1.87,2.92-3.42,3-0.52,2-1.66,4.23-4,4.87v3h0a3.35,3.35,0,0,1-3,3.31c0,0.77,0,1.54,0,2.32,0.07,14.64.15,29.65,10.72,36.75h0c0.49,0.33,1.17.72,1.84,1.12,2.63,1.54,5.3,3.1,5.3,6v2.27a8.14,8.14,0,0,1,3.65,1.69,8.49,8.49,0,0,1,2.7,4,8.82,8.82,0,0,1,.17,4.8,8.28,8.28,0,0,1-1.48,3.07,5.7,5.7,0,0,1,1.46,2.37,6.17,6.17,0,0,1,.2,2.93,6.08,6.08,0,0,1-1.19,2.71h0a5.69,5.69,0,0,1-4.61,2.18H65.42a5.69,5.69,0,0,1-4.61-2.19,6.07,6.07,0,0,1-1.19-2.71,6.17,6.17,0,0,1,.2-2.93,5.7,5.7,0,0,1,1.46-2.36,8.27,8.27,0,0,1-1.48-3.07,8.81,8.81,0,0,1,.17-4.8,8.48,8.48,0,0,1,2.7-4,8.14,8.14,0,0,1,3.65-1.69V164c0-2.88,2.67-4.44,5.3-6,0.68-.4,1.35-0.79,1.85-1.12,10.57-7.1,10.64-22.1,10.72-36.74v-2.32a3.34,3.34,0,0,1-3-3.31h0v-3c-2.24-.42-3.66-2.89-4-4.88-1.58-.09-3.12-0.58-3.43-3.05l-4-26.36v0a3.51,3.51,0,0,1,.66-2.59h0a3.51,3.51,0,0,1,2.29-1.38h0.27l10.83,0h0Zm37.47,30.08a3.82,3.82,0,0,0,1.44-.1h0l4-26.34V76.69h0v0h0a0.13,0.13,0,0,0,0-.09,0.12,0.12,0,0,0-.08,0H116.11a0.12,0.12,0,0,0-.1.06v0h0v0h0v0l-1.29,11.47-0.17,1.52H105.4v-13h0a0.13,0.13,0,0,0,0-.09,0.12,0.12,0,0,0-.08,0H94.71a0.13,0.13,0,0,0-.09,0,0.12,0.12,0,0,0,0,.08h0v13H85.48L85.3,88.14,84,76.82V76.65a0.13,0.13,0,0,0-.07-0.11H83.89l-10.63,0,0,0h0a0.13,0.13,0,0,0,0,.08h0l4,26.38v0a2.76,2.76,0,0,0,1.21.11h43Zm-1.8,2.15H80.44c0.66,2.53,1.16,2.91,3.68,3h31.6l1.32,0c1.2,0,2-1.65,2.35-2.43a3.05,3.05,0,0,0,.18-0.51v0h0Zm-4.2,5.15H84.64v3.9h30.72v-3.9h0ZM66,179.46h68l1-.74a5,5,0,0,0,1.9-2.81,5.42,5.42,0,0,0-.1-2.95,5.07,5.07,0,0,0-1.61-2.4,5,5,0,0,0-3.21-1.07H68a5,5,0,0,0-3.21,1.07,5.07,5.07,0,0,0-1.61,2.4,5.41,5.41,0,0,0-.1,2.95,5,5,0,0,0,1.9,2.81l1,0.74h0Zm69.28,2.16H64.72l-0.16.06A2.39,2.39,0,0,0,63,183.2a2.8,2.8,0,0,0-.08,1.32,2.67,2.67,0,0,0,.51,1.19,2.37,2.37,0,0,0,1.94.87h69.16a2.37,2.37,0,0,0,1.94-.87h0a2.64,2.64,0,0,0,.52-1.18,2.78,2.78,0,0,0-.08-1.32,2.38,2.38,0,0,0-1.51-1.52l-0.16-.06h0Zm-65.56-14.3h60.56V164c0-.93-1.82-2-3.61-3-0.66-.38-1.31-0.77-2-1.24h0c-12.07-8.11-12.15-24-12.22-39.56q0-1.78,0-3.55H87.6c0,1.18,0,2.37,0,3.55-0.08,15.53-.16,31.45-12.22,39.55-0.7.47-1.36,0.86-2,1.24-1.79,1-3.61,2.11-3.61,3v3.37h0Z"/></svg>