<svg id="Layer_1" data-name="Layer 1" xmlns="http://www.w3.org/2000/svg" viewBox="0 0 100 100"><defs><style>.cls-1{fill:#656668;}</style></defs><title>avatar</title><path class="cls-1" d="M14.85,14.85A47.9,47.9,0,0,1,50,.27,47.9,47.9,0,0,1,85.15,14.85,47.9,47.9,0,0,1,99.73,50,47.9,47.9,0,0,1,85.15,85.15,47.9,47.9,0,0,1,50,99.73,47.9,47.9,0,0,1,14.85,85.15,47.9,47.9,0,0,1,.27,50,47.9,47.9,0,0,1,14.85,14.85Zm67.42,2.87A44,44,0,0,0,50,4.33,44,44,0,0,0,17.72,17.72,44,44,0,0,0,4.33,50,43.75,43.75,0,0,0,15.09,79.17a153.15,153.15,0,0,1,21.52-7.65q0.72-.48.72-2.39a13.32,13.32,0,0,0-1-5.74A35.41,35.41,0,0,1,34.22,56a21.37,21.37,0,0,1-3.35-7.89,13.3,13.3,0,0,1,.24-6.69V40.91q0.72-2.39-.72-9.09Q29.2,25.61,34,19.4q4.54-6,13.87-6.69h4.3Q61.48,13.18,66,19.4q4.78,6.22,3.59,12.43-1.43,6.69-.72,9.09a0.69,0.69,0,0,1,.24.48,15.49,15.49,0,0,1,0,6.69,16.94,16.94,0,0,1-3.35,7.65,30.6,30.6,0,0,1-2.15,7.65,14.74,14.74,0,0,0-1.43,5.5q0,2.39.48,2.63,12,3.59,22.24,7.65A43.75,43.75,0,0,0,95.67,50,44,44,0,0,0,82.28,17.72Z"/></svg>